<?xml version="1.0" standalone="no"?>
<!DOCTYPE svg PUBLIC "-//W3C//DTD SVG 20010904//EN"
 "http://www.w3.org/TR/2001/REC-SVG-20010904/DTD/svg10.dtd">
<svg version="1.0" xmlns="http://www.w3.org/2000/svg"
 width="332.000000pt" height="332.000000pt" viewBox="0 0 332.000000 332.000000"
 preserveAspectRatio="xMidYMid meet">
<metadata>
Created by potrace 1.11, written by Peter Selinger 2001-2013
</metadata>
<g transform="translate(0.000000,332.000000) scale(0.100000,-0.100000)"
fill="#000000" stroke="none">
<path d="M1139 2746 c-2 -2 -17 -6 -34 -9 -44 -7 -119 -29 -129 -39 -6 -4 -16
-8 -22 -8 -26 0 -135 -72 -187 -123 -91 -89 -144 -178 -178 -302 -27 -100 -30
-122 -30 -235 -2 -355 215 -720 603 -1017 215 -164 488 -292 735 -343 108 -22
309 -20 393 4 130 37 246 118 313 219 34 51 74 138 83 182 21 95 25 132 25
210 0 294 -124 611 -343 877 -29 35 -54 65 -58 68 -3 3 -28 32 -57 65 -77 91
-267 222 -463 320 -78 39 -277 108 -345 120 -47 8 -300 17 -306 11z"/>
</g>
</svg>
