<?xml version="1.0" standalone="no"?>
<!DOCTYPE svg PUBLIC "-//W3C//DTD SVG 20010904//EN"
 "http://www.w3.org/TR/2001/REC-SVG-20010904/DTD/svg10.dtd">
<svg version="1.0" xmlns="http://www.w3.org/2000/svg"
 width="2000.000000pt" height="2000.000000pt" viewBox="0 0 2000.000000 2000.000000"
 preserveAspectRatio="xMidYMid meet">
<metadata>
Created by potrace 1.11, written by Peter Selinger 2001-2013
</metadata>
<g transform="translate(0.000000,2000.000000) scale(0.100000,-0.100000)"
fill="#000000" stroke="none">
<path d="M10042 18355 c-72 -41 -144 -77 -159 -81 -37 -9 -207 -71 -260 -95
-24 -10 -47 -19 -52 -19 -4 0 -80 -36 -167 -79 -143 -71 -343 -195 -433 -268
-79 -65 -218 -204 -278 -278 -73 -91 -156 -252 -173 -336 -67 -339 150 -600
745 -894 128 -63 439 -202 470 -209 6 -2 21 -8 35 -13 43 -18 207 -82 415
-163 317 -122 344 -133 340 -141 -3 -3 -26 -10 -52 -13 -291 -44 -592 -160
-786 -305 -111 -83 -189 -160 -285 -280 -34 -42 -101 -154 -135 -224 -39 -81
-100 -255 -111 -317 -28 -162 -37 -359 -23 -455 4 -22 9 -58 12 -80 3 -23 7
-52 10 -65 18 -92 18 -90 -1 -91 -58 -4 -221 -19 -264 -24 -19 -2 -64 -7 -100
-11 -36 -3 -72 -7 -80 -9 -8 -1 -42 -6 -75 -9 -33 -4 -116 -16 -185 -27 -69
-11 -134 -22 -145 -24 -11 -1 -47 -8 -80 -14 -189 -34 -226 -40 -290 -45 -38
-4 -90 -9 -115 -11 -25 -3 -73 -7 -107 -10 -35 -3 -77 -7 -95 -10 -18 -2 -60
-7 -92 -10 -64 -6 -61 -6 -251 -34 -159 -24 -182 -28 -270 -46 -38 -8 -85 -17
-104 -20 -19 -3 -37 -7 -40 -9 -3 -2 -22 -7 -41 -10 -63 -10 -269 -66 -378
-103 -230 -77 -444 -181 -626 -304 -130 -87 -225 -174 -298 -272 -110 -149
-150 -241 -163 -377 -4 -36 -11 -84 -16 -108 -9 -43 -12 -63 -23 -162 -16
-140 -22 -549 -11 -755 2 -44 7 -132 10 -195 3 -63 7 -135 9 -160 3 -25 7 -85
11 -135 4 -49 8 -103 10 -120 1 -16 5 -61 9 -100 11 -122 20 -212 31 -300 16
-126 56 -444 60 -465 2 -14 7 -60 10 -104 3 -43 8 -93 10 -110 2 -17 6 -56 9
-86 7 -70 15 -128 21 -160 2 -14 7 -45 10 -70 20 -148 81 -403 135 -567 88
-273 247 -568 408 -759 60 -71 64 -86 27 -92 -11 -2 -21 -8 -23 -13 -2 -5 -12
-9 -22 -9 -10 0 -22 -4 -25 -10 -3 -5 -15 -10 -25 -10 -10 0 -26 -7 -34 -16
-9 -8 -16 -13 -16 -10 0 7 -122 -52 -130 -63 -3 -3 -12 -7 -20 -9 -8 -2 -16
-8 -18 -13 -2 -5 -8 -9 -14 -9 -6 0 -42 -21 -82 -47 -67 -44 -98 -69 -153
-120 -12 -12 -23 -19 -23 -16 0 3 -27 -30 -61 -73 -61 -79 -98 -149 -121 -227
-13 -45 -19 -227 -7 -227 4 0 10 -17 14 -37 4 -21 14 -51 23 -68 9 -16 15 -33
14 -37 -1 -5 2 -8 8 -8 5 0 10 -5 10 -11 0 -21 104 -134 165 -178 56 -42 263
-152 296 -159 8 -1 25 -8 39 -14 57 -25 66 -28 85 -31 30 -5 109 -30 115 -37
3 -3 14 -6 25 -7 20 -3 56 -10 65 -13 3 -1 10 -3 15 -4 6 -1 24 -5 40 -10 110
-27 165 -38 198 -40 15 0 27 -5 27 -9 0 -5 6 -7 13 -4 6 2 30 -1 52 -8 23 -6
49 -11 58 -9 9 1 17 -1 17 -4 0 -6 41 -12 113 -16 15 0 27 -5 27 -9 0 -5 3 -6
8 -4 6 4 66 -4 127 -16 19 -4 139 -19 180 -23 11 -1 22 -2 25 -3 3 -2 21 -4
40 -6 19 -2 49 -6 65 -9 31 -5 128 -15 205 -22 25 -2 68 -6 95 -9 28 -3 75 -7
105 -10 30 -2 80 -7 110 -9 166 -14 307 -24 435 -31 44 -2 125 -6 180 -10 117
-7 304 -14 500 -20 77 -2 140 -5 140 -6 0 -4 1091 -5 1098 -1 5 2 77 6 160 8
183 4 375 11 477 18 41 3 109 8 150 11 41 2 104 7 140 10 36 3 97 7 135 10 39
2 70 5 70 6 0 1 20 3 45 5 25 1 77 6 115 10 39 4 82 8 98 7 15 0 27 3 27 6 0
3 17 7 38 7 82 3 142 9 142 15 0 3 10 5 23 6 24 1 82 7 167 19 30 4 67 8 83 8
15 1 27 3 27 6 0 3 12 7 28 8 15 2 43 5 62 7 19 2 36 4 38 6 1 1 5 2 10 3 4 1
13 5 21 10 10 7 12 6 6 -3 -6 -10 -3 -11 11 -3 11 5 39 12 64 15 47 7 63 10
169 32 36 7 69 11 73 9 4 -3 8 0 8 7 0 7 3 10 6 7 4 -5 58 5 149 29 11 2 31 7
45 10 14 2 32 7 40 10 8 4 19 5 23 4 4 0 21 6 37 14 16 9 33 15 37 15 25 0 73
14 73 21 0 5 3 8 8 8 4 -1 10 0 15 1 4 1 10 3 15 4 38 8 102 32 102 38 0 4 3
7 8 6 11 -4 117 41 192 81 36 19 75 39 87 45 13 6 23 14 23 19 0 4 5 7 10 7 6
0 16 4 23 10 160 129 162 131 197 180 13 19 27 37 30 40 13 10 51 80 45 80 -4
0 -3 6 3 13 15 18 39 91 36 110 -1 10 1 17 5 17 13 0 3 182 -12 233 -8 26 -12
47 -9 47 4 0 1 4 -6 9 -7 4 -14 14 -16 22 -2 18 -58 113 -68 117 -4 2 -8 9 -8
15 0 11 -149 160 -196 197 -26 21 -194 132 -219 146 -11 6 -38 21 -60 34 -74
42 -159 83 -172 83 -7 0 -13 3 -13 7 0 4 -34 20 -75 35 -41 15 -75 30 -75 33
0 3 20 37 44 76 107 174 242 453 326 671 23 61 48 126 55 145 7 19 21 58 30
86 l18 50 85 18 c296 61 551 215 737 446 159 198 289 510 331 790 3 19 8 46
11 60 10 46 12 424 2 500 -5 41 -19 120 -30 175 -12 55 -22 107 -24 115 -8 38
-67 212 -93 270 -27 62 -88 183 -115 225 -58 94 -73 113 -156 209 -101 117
-253 227 -343 250 -16 3 -28 12 -28 19 -5 104 -10 179 -14 207 -65 385 -238
588 -694 817 -162 81 -230 106 -372 138 -82 18 -151 33 -280 64 -215 51 -551
123 -662 141 -68 12 -148 25 -178 30 -30 6 -75 13 -100 16 -25 3 -54 8 -64 11
-10 3 -44 7 -75 9 -31 2 -71 6 -91 9 -19 3 -52 8 -74 11 -21 3 -46 7 -56 9 -9
2 -53 6 -96 10 -43 3 -86 8 -94 10 -8 2 -53 7 -100 10 -47 4 -101 8 -120 10
-107 11 -379 19 -622 19 l-278 0 6 30 c36 209 96 348 198 454 143 150 308 230
831 403 182 61 339 114 350 118 22 10 167 65 175 67 18 4 78 30 158 68 292
138 480 285 579 454 93 157 96 369 8 558 -86 186 -267 381 -533 572 -40 28
-74 52 -77 52 -2 0 -23 13 -47 29 -141 93 -426 231 -678 326 -91 35 -340 114
-500 160 -349 99 -493 146 -600 198 -76 36 -81 40 -132 90 -35 35 -38 43 -33
75 16 101 119 193 510 457 285 192 378 264 403 311 12 22 7 34 -13 34 -6 0
-70 -34 -143 -75z m-1092 -685 c0 -5 -5 -10 -11 -10 -5 0 -7 5 -4 10 3 6 8 10
11 10 2 0 4 -4 4 -10z m914 -504 c6 -1 40 -11 76 -21 58 -17 61 -20 37 -26
-18 -5 -40 -1 -64 10 -78 35 -107 51 -84 45 13 -3 29 -7 35 -8z m3679 -6201
c18 -18 9 -70 -19 -109 -28 -38 -35 -32 -28 25 4 28 8 61 9 72 1 12 3 23 4 25
3 7 21 0 34 -13z"/>
</g>
</svg>
